
        <svg xmlns="http://www.w3.org/2000/svg" xmlns:xlink="http://www.w3.org/1999/xlink" version="1.1" width="3182.370820668693" height="1179.711246200608" viewBox="0 0 3182.370820668693 1179.711246200608">
			
			<g transform="scale(9.118541033434651) translate(10, 10)">
				<defs id="SvgjsDefs18020"/><g id="SvgjsG18021" featureKey="symbolContainer" transform="matrix(1.045650034587559,0,0,1.045650034587559,0.000006519257546801766,0.000006519257546801766)" fill="#fff"><path xmlns="http://www.w3.org/2000/svg" d="M52.3 104.6a52.3 52.3 0 1 1 52.3-52.3 52.4 52.4 0 0 1-52.3 52.3zm0-102.3a50 50 0 1 0 50 50 50 50 0 0 0-50-50z"/></g><g id="SvgjsG18022" featureKey="symbolFeature-0" transform="matrix(0.7943197769438587,0,0,0.7943197769438587,15.284202048444378,15.137666986066955)" fill="#fff"><g xmlns="http://www.w3.org/2000/svg"><path d="M32.668,66.428c-0.315-0.09-0.626-0.211-0.938-0.331c-0.702-0.271-1.498-0.579-2.37-0.579   c-0.768,0-1.464,0.264-2.079,0.495c-0.52,0.196-1.011,0.382-1.457,0.382c-0.348,0-0.752-0.177-1.181-0.364   c-0.548-0.241-1.17-0.513-1.885-0.513c-0.953,0-1.813,0.287-2.644,0.564c-0.367,0.122-0.733,0.245-1.104,0.338   c-0.472,0.117-0.759,0.595-0.643,1.066s0.595,0.758,1.066,0.643c0.415-0.103,0.826-0.239,1.237-0.376   c0.73-0.244,1.42-0.475,2.086-0.475c0.347,0,0.751,0.177,1.18,0.364c0.549,0.24,1.17,0.513,1.886,0.513   c0.768,0,1.464-0.264,2.078-0.495c0.52-0.196,1.01-0.382,1.457-0.382c0.544,0,1.124,0.224,1.736,0.461   c0.36,0.139,0.722,0.276,1.087,0.381c0.081,0.023,0.163,0.035,0.243,0.035c0.383,0,0.735-0.253,0.846-0.639   C33.406,67.05,33.135,66.562,32.668,66.428z"/><path d="M61.934,76.824c-0.316-0.09-0.627-0.212-0.938-0.332c-0.702-0.271-1.498-0.577-2.371-0.577   c-0.768,0-1.464,0.263-2.078,0.494c-0.52,0.196-1.01,0.381-1.457,0.381c-0.347,0-0.752-0.177-1.18-0.364   c-0.549-0.239-1.17-0.511-1.886-0.511c-0.953,0-1.813,0.286-2.644,0.563c-0.367,0.123-0.733,0.246-1.103,0.338   c-0.473,0.117-0.76,0.594-0.643,1.066c0.117,0.471,0.595,0.757,1.065,0.643c0.416-0.104,0.827-0.24,1.238-0.377   c0.73-0.243,1.42-0.474,2.086-0.474c0.347,0,0.752,0.177,1.18,0.364c0.549,0.239,1.171,0.512,1.886,0.512   c0.768,0,1.465-0.263,2.078-0.494c0.52-0.197,1.012-0.382,1.457-0.382c0.544,0,1.124,0.224,1.736,0.46   c0.361,0.14,0.723,0.277,1.088,0.383c0.08,0.022,0.163,0.034,0.242,0.034c0.383,0,0.735-0.253,0.846-0.64   C62.671,77.445,62.401,76.958,61.934,76.824z"/><path d="M83.855,85.572c-0.315-0.091-0.626-0.212-0.938-0.332c-0.701-0.271-1.497-0.578-2.37-0.578   c-0.768,0-1.463,0.263-2.079,0.495c-0.519,0.195-1.01,0.381-1.456,0.381c-0.347,0-0.752-0.178-1.181-0.364   c-0.548-0.239-1.169-0.512-1.885-0.512c-0.952,0-1.813,0.287-2.644,0.564c-0.367,0.122-0.733,0.246-1.104,0.337   c-0.472,0.117-0.759,0.595-0.642,1.066c0.117,0.473,0.595,0.76,1.065,0.643c0.415-0.104,0.827-0.239,1.238-0.377   c0.729-0.243,1.42-0.474,2.086-0.474c0.347,0,0.752,0.178,1.18,0.365c0.549,0.239,1.17,0.511,1.886,0.511   c0.768,0,1.464-0.263,2.079-0.494c0.519-0.196,1.011-0.382,1.456-0.382c0.545,0,1.124,0.224,1.735,0.46   c0.361,0.14,0.723,0.278,1.089,0.383c0.08,0.023,0.162,0.034,0.242,0.034c0.383,0,0.735-0.252,0.846-0.639   C84.594,86.192,84.323,85.706,83.855,85.572z"/><path d="M33.906,57.184c0.415-0.103,0.827-0.238,1.237-0.376c0.73-0.244,1.42-0.475,2.086-0.475c0.347,0,0.752,0.177,1.18,0.364   c0.548,0.241,1.17,0.513,1.886,0.513c0.767,0,1.464-0.264,2.079-0.495c0.519-0.196,1.01-0.382,1.456-0.382   c0.545,0,1.125,0.224,1.736,0.461c0.361,0.139,0.722,0.277,1.088,0.381c0.081,0.024,0.162,0.035,0.242,0.035   c0.383,0,0.736-0.252,0.846-0.638c0.134-0.468-0.137-0.955-0.604-1.089c-0.315-0.091-0.626-0.211-0.938-0.331   c-0.701-0.272-1.497-0.58-2.371-0.58c-0.767,0-1.463,0.264-2.078,0.495c-0.519,0.196-1.01,0.382-1.457,0.382   c-0.347,0-0.752-0.177-1.18-0.364c-0.548-0.24-1.17-0.513-1.886-0.513c-0.952,0-1.812,0.287-2.644,0.566   c-0.367,0.122-0.733,0.244-1.104,0.337c-0.472,0.116-0.759,0.595-0.643,1.065C32.957,57.014,33.435,57.299,33.906,57.184z"/><path d="M47.994,73.326c0.383,0,0.736-0.253,0.846-0.64c0.134-0.467-0.136-0.954-0.604-1.089c-0.315-0.089-0.626-0.211-0.938-0.331   c-0.701-0.271-1.497-0.578-2.37-0.578c-0.768,0-1.463,0.264-2.079,0.494c-0.519,0.197-1.01,0.382-1.456,0.382   c-0.347,0-0.752-0.177-1.18-0.364c-0.549-0.24-1.17-0.512-1.886-0.512c-0.953,0-1.813,0.287-2.644,0.564   c-0.367,0.122-0.733,0.245-1.104,0.337c-0.472,0.117-0.759,0.595-0.642,1.067c0.117,0.471,0.593,0.758,1.066,0.642   c0.415-0.103,0.826-0.239,1.237-0.376c0.73-0.243,1.42-0.474,2.087-0.474c0.347,0,0.752,0.177,1.18,0.364   c0.549,0.239,1.17,0.512,1.886,0.512c0.767,0,1.464-0.264,2.079-0.494c0.519-0.197,1.011-0.382,1.457-0.382   c0.544,0,1.124,0.224,1.735,0.46c0.361,0.139,0.722,0.277,1.088,0.382C47.833,73.313,47.915,73.326,47.994,73.326z"/><path d="M93.774,33.561L74.411,15.958c-0.337-0.306-0.852-0.306-1.187,0.002L57.853,30.051l-5.935-3.344   c-0.025-0.014-0.054-0.014-0.079-0.026c-0.23-0.167-0.534-0.218-0.811-0.12l-4.309,1.515l-9.979-17.73   c-0.146-0.259-0.413-0.427-0.71-0.446c-0.294-0.019-0.583,0.113-0.762,0.351l-17.36,23.183l-3.721-0.954   c-0.292-0.075-0.601,0.004-0.821,0.211l-7.151,6.711c-0.354,0.333-0.373,0.89-0.04,1.244C6.509,41,7.065,41.018,7.42,40.685   l5.907-5.544l2.621,2.369l-2.887,2.199c-0.244,0.186-0.374,0.486-0.342,0.792s0.221,0.573,0.499,0.704l10.167,4.806   c0.122,0.057,0.25,0.084,0.375,0.084c0.33,0,0.646-0.187,0.796-0.504c0.208-0.439,0.02-0.964-0.42-1.172l-8.857-4.187l2.579-1.963   c0.208-0.159,0.335-0.401,0.346-0.663c0.011-0.262-0.095-0.515-0.289-0.69l-2.568-2.321l2.694,0.691   c0.346,0.088,0.71-0.04,0.923-0.325l16.182-21.609l0.863,4.001l-4.797,5.467c-0.319,0.364-0.285,0.917,0.076,1.238l8.94,7.952   c0.167,0.149,0.376,0.223,0.584,0.223c0.243,0,0.484-0.1,0.658-0.295c0.323-0.363,0.291-0.92-0.072-1.243l-8.287-7.371l4.513-5.143   c0.184-0.21,0.258-0.494,0.199-0.767l-0.543-2.519l8.269,14.688c0.209,0.372,0.657,0.541,1.059,0.398l4.382-1.542l4.099,5.717   l-1.648,6.152c-0.115,0.43,0.119,0.858,0.518,1.026c0.579,0.368,1.819,0.681,4.286,1.3c1.392,0.35,3.426,0.86,4.746,1.294   c-4.72,1.455-11.389,2.54-18.414,3.682c-17.082,2.778-34.744,5.65-33.681,14.866c1.307,11.322,16.326,20.271,30.846,27.53   c0.126,0.063,0.262,0.093,0.393,0.093c0.323,0,0.633-0.178,0.788-0.486c0.217-0.435,0.042-0.964-0.394-1.181   C29.253,81.797,13.86,72.826,12.644,62.275C11.773,54.73,29.35,51.872,44.857,49.35c7.775-1.264,15.118-2.458,20.013-4.186   c0.871-0.308,0.978-0.875,0.963-1.185c-0.052-1.124-1.451-1.612-6.896-2.984c12.961-0.684,28.347-0.127,29.818,1.613   c-0.702,1.335-8.874,3.435-14.868,4.977C61.491,50.77,48.673,54.063,49.179,59.38c0.891,9.361,24.471,13.473,42.131,15.753   c0.476,0.064,0.923-0.279,0.985-0.761c0.063-0.482-0.278-0.925-0.76-0.986c-26.372-3.402-40.032-8.171-40.604-14.173   c-0.364-3.818,13.933-7.492,23.394-9.924c10.952-2.814,16.217-4.275,16.217-6.715c0-0.318-0.102-0.791-0.585-1.238   c-3.321-3.076-26.022-2.478-34.464-1.888l1.402-5.237c0.068-0.255,0.02-0.526-0.135-0.74l-2.42-3.377l3.203,1.805   c0.332,0.187,0.747,0.139,1.027-0.118L72.54,18.976l-0.904,4.502c-0.075,0.379,0.105,0.764,0.445,0.948l4.468,2.405l-10.718,7.542   c-0.397,0.28-0.493,0.829-0.214,1.227c0.172,0.243,0.444,0.374,0.722,0.374c0.174,0,0.352-0.052,0.506-0.16l11.882-8.362   c0.25-0.176,0.391-0.468,0.372-0.772c-0.019-0.305-0.193-0.578-0.461-0.723l-5.146-2.771l0.965-4.807L92.59,34.863   c0.17,0.153,0.381,0.229,0.593,0.229c0.238,0,0.478-0.097,0.651-0.288C94.16,34.445,94.135,33.888,93.774,33.561z"/></g></g><g id="SvgjsG18023" featureKey="nameFeature-0" transform="matrix(1.2664575615165103,0,0,1.2664575615165103,126.66971774259002,20.776177888048288)" fill="#fff"><path d="M7.88 18.6 l-5.68 0 c-0.2 0 -0.36 -0.16 -0.36 -0.36 l0 -4.28 c0 -0.2 0.16 -0.36 0.36 -0.36 l16.68 0 c0.2 0 0.36 0.16 0.36 0.36 l0 4.28 c0 0.2 -0.16 0.36 -0.36 0.36 l-5.68 0 l0 21.04 c0 0.2 -0.16 0.36 -0.36 0.36 l-4.6 0 c-0.2 0 -0.36 -0.16 -0.36 -0.36 l0 -21.04 z M16.44 15.8 l-12.08 0 c-0.28 0 -0.28 0.52 0 0.52 l5.92 0 l0 21.2 c0 0.28 0.52 0.28 0.52 0 l0 -21.2 l5.64 0 c0.4 0 0.36 -0.52 0 -0.52 z M39.84 29.560000000000002 c-0.56 1.16 -1.36 2.04 -2.48 2.56 l3.36 7.4 c0.12 0.24 -0.04 0.48 -0.28 0.48 l-4.92 0 c-0.16 0 -0.24 -0.08 -0.28 -0.2 l-3.12 -6.8 l-2.04 0 l0 6.64 c0 0.2 -0.16 0.36 -0.36 0.36 l-4.6 0 c-0.16 0 -0.28 -0.16 -0.28 -0.36 l0 -25.68 c0 -0.2 0.12 -0.36 0.28 -0.36 l8.32 0 c4.44 0 7.12 2.52 7.12 7.2 l0 5.04 c0 1.4 -0.24 2.72 -0.72 3.72 z M35.32 24.6 l0 -2.6 c0 -2.8 -1.04 -3.08 -4.08 -3.08 l-1.16 0 l0 8.84 l1.16 0 c2.52 0 4 -0.04 4.08 -3.16 z M27.76 37.56 l0 -6.84 l5.76 0 l3.36 6.92 c0.08 0.2 0.56 0.12 0.44 -0.24 l-3.36 -6.8 c3.12 -0.44 4.2 -2.08 4.2 -5.04 l0 -5 c0 -4.4 -4 -4.76 -5.24 -4.76 l-5.4 0 c-0.08 0 -0.24 0.12 -0.24 0.24 l0 21.52 c0 0.28 0.48 0.28 0.48 0 z M37.68000000000001 20.56 l0 5 c0 4.08 -2.6 4.64 -5.12 4.64 l-4.8 0 l0 -13.88 l5.16 0 c4.32 0 4.76 2.92 4.76 4.24 z M47.96 40 c-0.2 0 -0.32 -0.16 -0.32 -0.36 l0 -25.68 c0 -0.2 0.12 -0.36 0.32 -0.36 l4.56 0 c0.2 0 0.36 0.16 0.36 0.36 l0 25.68 c0 0.2 -0.16 0.36 -0.36 0.36 l-4.56 0 z M50.040000000000006 16 l0 21.56 c0 0.36 0.44 0.36 0.44 0 l0 -21.56 c0 -0.28 -0.44 -0.28 -0.44 0 z M68.84 13.600000000000001 c4.44 0 7.12 2.52 7.12 7.2 l0 5.04 c0 4.28 -2.64 7.16 -7.12 7.16 l-3.36 0 l0 6.64 c0 0.2 -0.16 0.36 -0.36 0.36 l-4.6 0 c-0.16 0 -0.28 -0.16 -0.28 -0.36 l0 -25.68 c0 -0.2 0.12 -0.36 0.28 -0.36 l8.32 0 z M70.72 24.64 l0 -2.64 c0 -2.76 -1.28 -3.04 -4.08 -3.04 l-1.16 0 l0 8.8 l1.16 0 c2.2 0 4.08 -0.4 4.08 -3.12 z M73.56 25.560000000000002 l0 -5 c0 -4.4 -3.4 -4.76 -5.24 -4.76 l-5.4 0 c-0.08 0 -0.24 0.12 -0.24 0.24 l0 21.52 c0 0.28 0.48 0.28 0.48 0 l0 -6.8 l4.8 0 c3.52 0 5.6 -1.24 5.6 -5.2 z M63.160000000000004 16.32 l5.16 0 c4.44 0 4.72 2.92 4.72 4.24 l0 5 c0 4.08 -2.56 4.64 -5.08 4.64 l-4.8 0 l0 -13.88 z M90.2 13.600000000000001 c4.44 0 7.12 2.52 7.12 7.2 l0 5.04 c0 4.28 -2.64 7.16 -7.12 7.16 l-3.36 0 l0 6.64 c0 0.2 -0.16 0.36 -0.36 0.36 l-4.6 0 c-0.16 0 -0.28 -0.16 -0.28 -0.36 l0 -25.68 c0 -0.2 0.12 -0.36 0.28 -0.36 l8.32 0 z M92.08 24.64 l0 -2.64 c0 -2.76 -1.28 -3.04 -4.08 -3.04 l-1.16 0 l0 8.8 l1.16 0 c2.2 0 4.08 -0.4 4.08 -3.12 z M94.92 25.560000000000002 l0 -5 c0 -4.4 -3.4 -4.76 -5.24 -4.76 l-5.4 0 c-0.08 0 -0.24 0.12 -0.24 0.24 l0 21.52 c0 0.28 0.48 0.28 0.48 0 l0 -6.8 l4.8 0 c3.52 0 5.6 -1.24 5.6 -5.2 z M84.52000000000001 16.32 l5.16 0 c4.44 0 4.72 2.92 4.72 4.24 l0 5 c0 4.08 -2.56 4.64 -5.08 4.64 l-4.8 0 l0 -13.88 z M107.84 13.600000000000001 c0.2 0 0.36 0.16 0.36 0.36 l0 21 l8.64 0 c0.2 0 0.36 0.16 0.36 0.36 l0 4.32 c0 0.2 -0.16 0.36 -0.36 0.36 l-13.56 0 c-0.2 0 -0.32 -0.16 -0.32 -0.36 l0 -25.68 c0 -0.2 0.12 -0.36 0.32 -0.36 l4.56 0 z M105.36 16.04 l0 21.52 c0 0.08 0.08 0.2 0.24 0.2 l9.24 0 c0.32 0 0.32 -0.52 0 -0.52 l-9.04 0 l0 -21.2 c0 -0.28 -0.44 -0.32 -0.44 0 z M123.12 40 c-0.2 0 -0.32 -0.16 -0.32 -0.36 l0 -25.68 c0 -0.2 0.12 -0.36 0.32 -0.36 l13.6 0 c0.2 0 0.36 0.16 0.36 0.36 l0 4.28 c0 0.2 -0.16 0.36 -0.36 0.36 l-8.64 0 l0 5.44 l6.72 0 c0.2 0 0.32 0.16 0.32 0.36 l0 4.36 c0 0.2 -0.12 0.36 -0.32 0.36 l-6.72 0 l0 5.88 l8.64 0 c0.2 0 0.36 0.16 0.36 0.36 l0 4.28 c0 0.2 -0.16 0.36 -0.36 0.36 l-13.6 0 z M125.12 16.12 l0 21.28 c0 0.24 0.16 0.32 0.32 0.32 l9.2 0 c0.36 0 0.28 -0.48 0 -0.48 l-9 0 l0 -10.44 l7.36 0 c0.24 0 0.24 -0.56 0 -0.56 l-7.36 0 l0 -9.92 l9 0 c0.28 0 0.36 -0.52 0 -0.52 l-9.2 0 c-0.16 0 -0.32 0.12 -0.32 0.32 z M158.84 29.560000000000002 c-0.56 1.16 -1.36 2.04 -2.48 2.56 l3.36 7.4 c0.12 0.24 -0.04 0.48 -0.28 0.48 l-4.92 0 c-0.16 0 -0.24 -0.08 -0.28 -0.2 l-3.12 -6.8 l-2.04 0 l0 6.64 c0 0.2 -0.16 0.36 -0.36 0.36 l-4.6 0 c-0.16 0 -0.28 -0.16 -0.28 -0.36 l0 -25.68 c0 -0.2 0.12 -0.36 0.28 -0.36 l8.32 0 c4.44 0 7.12 2.52 7.12 7.2 l0 5.04 c0 1.4 -0.24 2.72 -0.72 3.72 z M154.32000000000002 24.6 l0 -2.6 c0 -2.8 -1.04 -3.08 -4.08 -3.08 l-1.16 0 l0 8.84 l1.16 0 c2.52 0 4 -0.04 4.08 -3.16 z M146.76000000000002 37.56 l0 -6.84 l5.76 0 l3.36 6.92 c0.08 0.2 0.56 0.12 0.44 -0.24 l-3.36 -6.8 c3.12 -0.44 4.2 -2.08 4.2 -5.04 l0 -5 c0 -4.4 -4 -4.76 -5.24 -4.76 l-5.4 0 c-0.08 0 -0.24 0.12 -0.24 0.24 l0 21.52 c0 0.28 0.48 0.28 0.48 0 z M156.68 20.56 l0 5 c0 4.08 -2.6 4.64 -5.12 4.64 l-4.8 0 l0 -13.88 l5.16 0 c4.32 0 4.76 2.92 4.76 4.24 z"/></g>
			</g>
		</svg>
	